<?xml version="1.0" standalone="no"?>
<!DOCTYPE svg PUBLIC "-//W3C//DTD SVG 20010904//EN"
 "http://www.w3.org/TR/2001/REC-SVG-20010904/DTD/svg10.dtd">
<svg version="1.0" xmlns="http://www.w3.org/2000/svg"
 width="98.000000pt" height="105.000000pt" viewBox="0 0 98.000000 105.000000"
 preserveAspectRatio="xMidYMid meet">

<g transform="translate(0.000000,105.000000) scale(0.100000,-0.100000)"
fill="#000000" stroke="none">
<path d="M130 1033 c-8 -3 -39 -14 -67 -25 l-53 -19 0 -464 0 -464 52 -19 c29
-11 63 -23 75 -26 19 -6 58 35 319 341 163 191 305 357 315 368 19 19 19 14
19 -200 l-1 -220 -26 30 c-14 17 -46 53 -70 80 l-43 50 -31 -35 c-17 -19 -42
-49 -56 -67 l-25 -32 137 -161 c76 -88 140 -160 142 -160 3 0 38 12 79 26 l74
27 0 462 0 462 -74 27 c-41 14 -76 26 -79 26 -3 0 -145 -164 -317 -365 -171
-201 -314 -365 -316 -365 -2 0 -4 98 -4 218 l1 217 32 -35 c17 -19 49 -55 70
-80 l38 -45 54 60 c30 33 54 65 55 70 0 12 -268 325 -278 324 -4 0 -14 -3 -22
-6z"/>
</g>
</svg>
